<?xml version="1.0" standalone="no"?>
<svg version="1.0" xmlns="http://www.w3.org/2000/svg"
 width="32.000000pt" height="32.000000pt" viewBox="0 0 32.000000 32.000000"
 preserveAspectRatio="xMidYMid meet">

<g transform="translate(0.000000,32.000000) scale(0.100000,-0.100000)"
fill="#000000" stroke="none">
<path d="M123 267 c5 -15 37 -22 37 -9 0 5 -9 12 -21 15 -13 3 -19 1 -16 -6z"/>
<path d="M220 241 c0 -7 -4 -9 -10 -6 -5 3 -10 1 -10 -4 0 -6 4 -11 9 -11 13
0 25 20 17 27 -3 4 -6 1 -6 -6z"/>
<path d="M160 219 c0 -5 5 -7 10 -4 6 3 10 8 10 11 0 2 -4 4 -10 4 -5 0 -10
-5 -10 -11z"/>
<path d="M92 159 c-1 -36 -7 -70 -14 -77 -6 -6 -9 -14 -6 -18 15 -14 29 41 25
99 l-3 62 -2 -66z"/>
<path d="M179 153 c-1 -24 -3 -29 -6 -15 -7 35 -27 26 -50 -23 l-21 -45 33 0
c40 0 65 33 63 84 -2 48 -18 46 -19 -1z"/>
</g>
</svg>
